<svg width="24" height="24" viewBox="0 0 24 24" fill="none" xmlns="http://www.w3.org/2000/svg">
<g clip-path="url(#clip0_19_490)">
<path d="M22.3091 7.66257C21.7463 6.33182 20.9406 5.13677 19.9144 4.1106C18.8883 3.08445 17.6932 2.27872 16.3625 1.71587C14.9844 1.13305 13.5209 0.837524 12.0125 0.837524C10.5041 0.837524 9.04057 1.13305 7.66257 1.71587C6.33182 2.27872 5.13677 3.08445 4.1106 4.1106C3.08442 5.13675 2.27872 6.3318 1.71587 7.66257C1.13302 9.04057 0.837524 10.5041 0.837524 12.0125C0.837524 13.5209 1.13305 14.9845 1.71587 16.3625C2.27872 17.6932 3.08445 18.8883 4.1106 19.9144C5.13675 20.9406 6.3318 21.7463 7.66257 22.3091C9.04055 22.892 10.5041 23.1875 12.0125 23.1875C13.5209 23.1875 14.9844 22.892 16.3625 22.3091C17.6932 21.7463 18.8883 20.9406 19.9145 19.9144C20.9406 18.8883 21.7463 17.6932 22.3092 16.3625C22.892 14.9845 23.1875 13.5209 23.1875 12.0125C23.1875 10.5041 22.892 9.04057 22.3091 7.66257ZM22.3606 11.625H19.0239C18.9554 9.80002 18.4872 8.009 17.6541 6.39632C18.3725 6.02657 19.0532 5.59222 19.6901 5.08607C21.2684 6.82972 22.2626 9.10002 22.3606 11.625ZM12.425 2.03887C14.15 3.02265 15.523 4.39597 16.5151 6.01427C15.2264 6.56145 13.85 6.87435 12.425 6.92807V2.03887ZM11.625 6.93032C10.15 6.88195 8.71427 6.5535 7.38065 5.9732C8.40597 4.31637 9.82502 2.9189 11.625 1.93722V6.93032ZM7.65365 6.9746C8.92247 7.44867 10.25 7.70877 11.625 7.7496V11.625H5.64075C5.7104 9.87502 6.1725 8.1956 6.9547 6.70182C7.1826 6.80305 7.41915 6.887 7.65365 6.9746V6.9746ZM11.625 12.425V16.1794C10.25 16.2204 8.911 16.4826 7.63722 16.9606C7.37568 17.0586 7.11746 17.1654 6.86302 17.2806C6.11925 15.7981 5.68745 14.15 5.63655 12.425H11.625ZM11.625 16.9987V22.2086C9.77502 21.1932 8.30595 19.7337 7.27555 18.002C8.63827 17.3928 10.1 17.0483 11.625 16.9987ZM12.425 17.0009C13.875 17.0561 15.3019 17.3846 16.62 17.9596C15.6223 19.6528 14.2 21.0883 12.425 22.1069V17.0009ZM16.3621 16.9685C15.1005 16.4924 13.775 16.2282 12.425 16.1813V12.425H18.2086C18.1582 14.15 17.7403 15.7654 17.01 17.2367C16.7966 17.1421 16.5814 17.0512 16.3621 16.9685V16.9685ZM12.425 11.625V7.74777C13.775 7.70105 15.089 7.43895 16.3458 6.96672C16.5395 6.89392 16.73 6.82687 16.9192 6.7448C17.6877 8.22762 18.1355 9.87502 18.2044 11.625H12.425ZM19.114 4.48157C18.533 4.93568 17.9099 5.3331 17.2531 5.6684C17.2239 5.61985 17.1944 5.57152 17.1645 5.5234C16.2334 4.02901 14.996 2.74907 13.5339 1.76805C15.6767 2.08487 17.6077 3.0604 19.114 4.48157ZM10.2556 1.80567C8.81757 2.78184 7.59979 4.04825 6.68065 5.5234C6.6605 5.55575 6.6409 5.5884 6.62105 5.62092C6.01003 5.30211 5.42877 4.92925 4.88422 4.5068C6.3392 3.12432 8.19432 2.15937 10.2556 1.80567V1.80567ZM4.31035 5.10792C4.90912 5.58035 5.54615 6.0001 6.2166 6.3526C5.36755 7.97825 4.89055 9.77502 4.82127 11.625H1.66442C1.76187 9.12502 2.74632 6.8481 4.31035 5.10792ZM1.66442 12.425H4.8175C4.8684 14.25 5.31692 16.0246 6.12937 17.6407C5.47205 17.993 4.8475 18.4059 4.2601 18.8743C2.7252 17.1415 1.76085 14.9 1.66442 12.425ZM4.82915 19.4653C5.3602 19.0481 5.92683 18.6783 6.52252 18.3601C6.57882 18.456 6.63642 18.5511 6.6953 18.6454C7.56157 20.029 8.69143 21.2287 10.0206 22.1762C8.0274 21.7864 6.2371 20.8229 4.82915 19.4653ZM13.7617 22.2207C15.1179 21.2665 16.2698 20.0509 17.1499 18.6454C17.2188 18.5352 17.286 18.4238 17.3514 18.3114C17.993 18.6468 18.6016 19.0417 19.1693 19.491C17.7082 20.8898 15.8396 21.8658 13.7617 22.2207V22.2207ZM19.7403 18.9011C19.1177 18.4009 18.4481 17.9622 17.7409 17.5911C18.5375 15.9884 18.9773 14.25 19.0277 12.425H22.3606C22.2637 14.925 21.2895 17.1647 19.7403 18.9011Z" fill="#8A53FF"/>
</g>
<defs>
<clipPath id="clip0_19_490">
<rect width="24" height="24" fill="white"/>
</clipPath>
</defs>
</svg>
